<mxfile host="app.diagrams.net" modified="2021-12-13T13:33:05.248Z" agent="5.0 (Windows NT 10.0; Win64; x64) AppleWebKit/537.36 (KHTML, like Gecko) Chrome/96.0.4664.93 Safari/537.36 Edg/96.0.1054.53" etag="MxkYsxwKxmxE3tK0-T4g" version="15.9.1" type="github">
  <diagram id="uzBCqw_kNzwT6rNOl7PK" name="Page-1">
    <mxGraphModel dx="1038" dy="579" grid="1" gridSize="10" guides="1" tooltips="1" connect="1" arrows="1" fold="1" page="1" pageScale="1" pageWidth="850" pageHeight="1100" math="0" shadow="0">
      <root>
        <mxCell id="0" />
        <mxCell id="1" parent="0" />
        <mxCell id="n2nUxR8Hnur2N0bHUAFO-3" value="" style="swimlane;childLayout=stackLayout;resizeParent=1;resizeParentMax=0;startSize=20;horizontal=0;horizontalStack=1;" vertex="1" parent="1">
          <mxGeometry x="40" y="40" width="380" height="480" as="geometry" />
        </mxCell>
        <mxCell id="n2nUxR8Hnur2N0bHUAFO-4" value="Customer" style="swimlane;startSize=20;" vertex="1" parent="n2nUxR8Hnur2N0bHUAFO-3">
          <mxGeometry x="20" width="120" height="480" as="geometry" />
        </mxCell>
        <mxCell id="n2nUxR8Hnur2N0bHUAFO-15" style="edgeStyle=orthogonalEdgeStyle;rounded=0;orthogonalLoop=1;jettySize=auto;html=1;entryX=0.5;entryY=0;entryDx=0;entryDy=0;" edge="1" parent="n2nUxR8Hnur2N0bHUAFO-4" source="n2nUxR8Hnur2N0bHUAFO-11" target="n2nUxR8Hnur2N0bHUAFO-14">
          <mxGeometry relative="1" as="geometry" />
        </mxCell>
        <mxCell id="n2nUxR8Hnur2N0bHUAFO-11" value="" style="ellipse;whiteSpace=wrap;html=1;aspect=fixed;fillColor=#000000;" vertex="1" parent="n2nUxR8Hnur2N0bHUAFO-4">
          <mxGeometry x="45" y="40" width="30" height="30" as="geometry" />
        </mxCell>
        <mxCell id="n2nUxR8Hnur2N0bHUAFO-14" value="Mengisi Form Pendaftaran" style="rounded=0;whiteSpace=wrap;html=1;fillColor=#FFFFFF;" vertex="1" parent="n2nUxR8Hnur2N0bHUAFO-4">
          <mxGeometry x="10" y="110" width="100" height="40" as="geometry" />
        </mxCell>
        <mxCell id="n2nUxR8Hnur2N0bHUAFO-23" value="Pendaftaran Berhasil" style="rounded=0;whiteSpace=wrap;html=1;fontSize=9;fillColor=#FFFFFF;" vertex="1" parent="n2nUxR8Hnur2N0bHUAFO-4">
          <mxGeometry x="20" y="180" width="80" height="40" as="geometry" />
        </mxCell>
        <mxCell id="n2nUxR8Hnur2N0bHUAFO-28" value="" style="ellipse;html=1;shape=endState;fillColor=#000000;strokeColor=#ff0000;fontSize=9;" vertex="1" parent="n2nUxR8Hnur2N0bHUAFO-4">
          <mxGeometry x="45" y="310" width="30" height="30" as="geometry" />
        </mxCell>
        <mxCell id="n2nUxR8Hnur2N0bHUAFO-33" style="edgeStyle=orthogonalEdgeStyle;rounded=0;orthogonalLoop=1;jettySize=auto;html=1;entryX=0.5;entryY=1;entryDx=0;entryDy=0;fontSize=9;" edge="1" parent="n2nUxR8Hnur2N0bHUAFO-4" source="n2nUxR8Hnur2N0bHUAFO-32" target="n2nUxR8Hnur2N0bHUAFO-28">
          <mxGeometry relative="1" as="geometry" />
        </mxCell>
        <mxCell id="n2nUxR8Hnur2N0bHUAFO-32" value="Menerima Pesan Promosi" style="rounded=0;whiteSpace=wrap;html=1;fontSize=9;fillColor=#FFFFFF;" vertex="1" parent="n2nUxR8Hnur2N0bHUAFO-4">
          <mxGeometry x="20" y="380" width="80" height="40" as="geometry" />
        </mxCell>
        <mxCell id="n2nUxR8Hnur2N0bHUAFO-5" value="Sistem" style="swimlane;startSize=20;" vertex="1" parent="n2nUxR8Hnur2N0bHUAFO-3">
          <mxGeometry x="140" width="120" height="480" as="geometry" />
        </mxCell>
        <mxCell id="n2nUxR8Hnur2N0bHUAFO-16" value="Menyimpan data Pendaftaran" style="rounded=0;whiteSpace=wrap;html=1;fillColor=#FFFFFF;" vertex="1" parent="n2nUxR8Hnur2N0bHUAFO-5">
          <mxGeometry x="10" y="110" width="100" height="40" as="geometry" />
        </mxCell>
        <mxCell id="n2nUxR8Hnur2N0bHUAFO-18" value="&lt;font style=&quot;font-size: 9px&quot;&gt;Apakah ingin mendaftar langganan promosi&lt;/font&gt;" style="rhombus;whiteSpace=wrap;html=1;fillColor=#FFFFFF;" vertex="1" parent="n2nUxR8Hnur2N0bHUAFO-5">
          <mxGeometry x="15" y="230" width="90" height="80" as="geometry" />
        </mxCell>
        <mxCell id="n2nUxR8Hnur2N0bHUAFO-6" value="Marketing" style="swimlane;startSize=20;" vertex="1" parent="n2nUxR8Hnur2N0bHUAFO-3">
          <mxGeometry x="260" width="120" height="480" as="geometry">
            <mxRectangle x="260" width="30" height="480" as="alternateBounds" />
          </mxGeometry>
        </mxCell>
        <mxCell id="n2nUxR8Hnur2N0bHUAFO-29" style="edgeStyle=orthogonalEdgeStyle;rounded=0;orthogonalLoop=1;jettySize=auto;html=1;entryX=0.5;entryY=0;entryDx=0;entryDy=0;fontSize=9;" edge="1" parent="n2nUxR8Hnur2N0bHUAFO-6" source="n2nUxR8Hnur2N0bHUAFO-21" target="n2nUxR8Hnur2N0bHUAFO-26">
          <mxGeometry relative="1" as="geometry" />
        </mxCell>
        <mxCell id="n2nUxR8Hnur2N0bHUAFO-21" value="Menerima kontak customer" style="rounded=0;whiteSpace=wrap;html=1;fillColor=#FFFFFF;" vertex="1" parent="n2nUxR8Hnur2N0bHUAFO-6">
          <mxGeometry x="10" y="250" width="100" height="40" as="geometry" />
        </mxCell>
        <mxCell id="n2nUxR8Hnur2N0bHUAFO-26" value="Mengirim pesan Promosi" style="rounded=0;whiteSpace=wrap;html=1;fontSize=9;fillColor=#FFFFFF;" vertex="1" parent="n2nUxR8Hnur2N0bHUAFO-6">
          <mxGeometry x="20" y="330" width="80" height="40" as="geometry" />
        </mxCell>
        <mxCell id="n2nUxR8Hnur2N0bHUAFO-17" style="edgeStyle=orthogonalEdgeStyle;rounded=0;orthogonalLoop=1;jettySize=auto;html=1;entryX=0;entryY=0.5;entryDx=0;entryDy=0;" edge="1" parent="n2nUxR8Hnur2N0bHUAFO-3" source="n2nUxR8Hnur2N0bHUAFO-14" target="n2nUxR8Hnur2N0bHUAFO-16">
          <mxGeometry relative="1" as="geometry" />
        </mxCell>
        <mxCell id="n2nUxR8Hnur2N0bHUAFO-22" value="Ya" style="edgeStyle=orthogonalEdgeStyle;rounded=0;orthogonalLoop=1;jettySize=auto;html=1;fontSize=9;" edge="1" parent="n2nUxR8Hnur2N0bHUAFO-3" source="n2nUxR8Hnur2N0bHUAFO-18" target="n2nUxR8Hnur2N0bHUAFO-21">
          <mxGeometry relative="1" as="geometry" />
        </mxCell>
        <mxCell id="n2nUxR8Hnur2N0bHUAFO-19" style="edgeStyle=orthogonalEdgeStyle;rounded=0;orthogonalLoop=1;jettySize=auto;html=1;entryX=0.5;entryY=0;entryDx=0;entryDy=0;fontSize=9;" edge="1" parent="n2nUxR8Hnur2N0bHUAFO-3" source="n2nUxR8Hnur2N0bHUAFO-16" target="n2nUxR8Hnur2N0bHUAFO-23">
          <mxGeometry relative="1" as="geometry">
            <Array as="points">
              <mxPoint x="200" y="170" />
              <mxPoint x="80" y="170" />
            </Array>
          </mxGeometry>
        </mxCell>
        <mxCell id="n2nUxR8Hnur2N0bHUAFO-27" style="edgeStyle=orthogonalEdgeStyle;rounded=0;orthogonalLoop=1;jettySize=auto;html=1;entryX=0;entryY=0.5;entryDx=0;entryDy=0;fontSize=9;" edge="1" parent="n2nUxR8Hnur2N0bHUAFO-3" source="n2nUxR8Hnur2N0bHUAFO-23" target="n2nUxR8Hnur2N0bHUAFO-18">
          <mxGeometry relative="1" as="geometry">
            <Array as="points">
              <mxPoint x="80" y="270" />
            </Array>
          </mxGeometry>
        </mxCell>
        <mxCell id="n2nUxR8Hnur2N0bHUAFO-30" value="Tidak" style="edgeStyle=orthogonalEdgeStyle;rounded=0;orthogonalLoop=1;jettySize=auto;html=1;entryX=1;entryY=0.5;entryDx=0;entryDy=0;fontSize=9;" edge="1" parent="n2nUxR8Hnur2N0bHUAFO-3" source="n2nUxR8Hnur2N0bHUAFO-18" target="n2nUxR8Hnur2N0bHUAFO-28">
          <mxGeometry relative="1" as="geometry">
            <Array as="points">
              <mxPoint x="200" y="325" />
            </Array>
          </mxGeometry>
        </mxCell>
        <mxCell id="n2nUxR8Hnur2N0bHUAFO-31" style="edgeStyle=orthogonalEdgeStyle;rounded=0;orthogonalLoop=1;jettySize=auto;html=1;fontSize=9;entryX=0.5;entryY=1;entryDx=0;entryDy=0;" edge="1" parent="n2nUxR8Hnur2N0bHUAFO-3" source="n2nUxR8Hnur2N0bHUAFO-26" target="n2nUxR8Hnur2N0bHUAFO-32">
          <mxGeometry relative="1" as="geometry">
            <mxPoint x="80" y="400" as="targetPoint" />
            <Array as="points">
              <mxPoint x="320" y="440" />
              <mxPoint x="80" y="440" />
            </Array>
          </mxGeometry>
        </mxCell>
        <mxCell id="n2nUxR8Hnur2N0bHUAFO-7" value="" style="shape=table;startSize=0;container=1;collapsible=0;childLayout=tableLayout;fontStyle=1" vertex="1" parent="1">
          <mxGeometry x="40" y="10" width="380" height="30" as="geometry" />
        </mxCell>
        <mxCell id="n2nUxR8Hnur2N0bHUAFO-8" value="" style="shape=partialRectangle;collapsible=0;dropTarget=0;pointerEvents=0;fillColor=none;top=0;left=0;bottom=0;right=0;points=[[0,0.5],[1,0.5]];portConstraint=eastwest;" vertex="1" parent="n2nUxR8Hnur2N0bHUAFO-7">
          <mxGeometry width="380" height="30" as="geometry" />
        </mxCell>
        <mxCell id="n2nUxR8Hnur2N0bHUAFO-9" value="&lt;b&gt;Memasarkan Produk&lt;/b&gt;" style="shape=partialRectangle;html=1;whiteSpace=wrap;connectable=0;overflow=hidden;fillColor=none;top=0;left=0;bottom=0;right=0;pointerEvents=1;" vertex="1" parent="n2nUxR8Hnur2N0bHUAFO-8">
          <mxGeometry width="380" height="30" as="geometry">
            <mxRectangle width="380" height="30" as="alternateBounds" />
          </mxGeometry>
        </mxCell>
        <mxCell id="n2nUxR8Hnur2N0bHUAFO-87" value="" style="swimlane;childLayout=stackLayout;resizeParent=1;resizeParentMax=0;startSize=20;horizontal=0;horizontalStack=1;" vertex="1" parent="1">
          <mxGeometry x="450" y="40" width="380" height="480" as="geometry" />
        </mxCell>
        <mxCell id="n2nUxR8Hnur2N0bHUAFO-88" value="Accounting" style="swimlane;startSize=20;" vertex="1" parent="n2nUxR8Hnur2N0bHUAFO-87">
          <mxGeometry x="20" width="120" height="480" as="geometry" />
        </mxCell>
        <mxCell id="n2nUxR8Hnur2N0bHUAFO-89" style="edgeStyle=orthogonalEdgeStyle;rounded=0;orthogonalLoop=1;jettySize=auto;html=1;entryX=0.5;entryY=0;entryDx=0;entryDy=0;" edge="1" parent="n2nUxR8Hnur2N0bHUAFO-88" source="n2nUxR8Hnur2N0bHUAFO-90" target="n2nUxR8Hnur2N0bHUAFO-91">
          <mxGeometry relative="1" as="geometry" />
        </mxCell>
        <mxCell id="n2nUxR8Hnur2N0bHUAFO-90" value="" style="ellipse;whiteSpace=wrap;html=1;aspect=fixed;fillColor=#000000;" vertex="1" parent="n2nUxR8Hnur2N0bHUAFO-88">
          <mxGeometry x="45" y="40" width="30" height="30" as="geometry" />
        </mxCell>
        <mxCell id="n2nUxR8Hnur2N0bHUAFO-91" value="Mengisi Form Login" style="rounded=0;whiteSpace=wrap;html=1;fillColor=#FFFFFF;" vertex="1" parent="n2nUxR8Hnur2N0bHUAFO-88">
          <mxGeometry x="10" y="110" width="100" height="40" as="geometry" />
        </mxCell>
        <mxCell id="n2nUxR8Hnur2N0bHUAFO-174" style="edgeStyle=orthogonalEdgeStyle;rounded=0;orthogonalLoop=1;jettySize=auto;html=1;entryX=0.5;entryY=0;entryDx=0;entryDy=0;fontSize=9;" edge="1" parent="n2nUxR8Hnur2N0bHUAFO-88" source="n2nUxR8Hnur2N0bHUAFO-92" target="n2nUxR8Hnur2N0bHUAFO-139">
          <mxGeometry relative="1" as="geometry" />
        </mxCell>
        <mxCell id="n2nUxR8Hnur2N0bHUAFO-92" value="Dashboard" style="rounded=0;whiteSpace=wrap;html=1;fontSize=9;fillColor=#FFFFFF;" vertex="1" parent="n2nUxR8Hnur2N0bHUAFO-88">
          <mxGeometry x="20" y="180" width="80" height="40" as="geometry" />
        </mxCell>
        <mxCell id="n2nUxR8Hnur2N0bHUAFO-139" value="Membuat, Menghapus, Mengedit Laporan" style="rounded=0;whiteSpace=wrap;html=1;fontSize=9;fillColor=#FFFFFF;" vertex="1" parent="n2nUxR8Hnur2N0bHUAFO-88">
          <mxGeometry x="20" y="240" width="80" height="40" as="geometry" />
        </mxCell>
        <mxCell id="n2nUxR8Hnur2N0bHUAFO-96" value="Sistem" style="swimlane;startSize=20;" vertex="1" parent="n2nUxR8Hnur2N0bHUAFO-87">
          <mxGeometry x="140" width="120" height="480" as="geometry" />
        </mxCell>
        <mxCell id="n2nUxR8Hnur2N0bHUAFO-137" value="Login Valid?" style="shape=rhombus;html=1;dashed=0;whitespace=wrap;perimeter=rhombusPerimeter;fontSize=9;fillColor=#FFFFFF;" vertex="1" parent="n2nUxR8Hnur2N0bHUAFO-96">
          <mxGeometry x="30" y="105" width="60" height="50" as="geometry" />
        </mxCell>
        <mxCell id="n2nUxR8Hnur2N0bHUAFO-143" style="edgeStyle=orthogonalEdgeStyle;rounded=0;orthogonalLoop=1;jettySize=auto;html=1;entryX=0.5;entryY=0;entryDx=0;entryDy=0;fontSize=9;" edge="1" parent="n2nUxR8Hnur2N0bHUAFO-96" source="n2nUxR8Hnur2N0bHUAFO-140" target="n2nUxR8Hnur2N0bHUAFO-142">
          <mxGeometry relative="1" as="geometry" />
        </mxCell>
        <mxCell id="n2nUxR8Hnur2N0bHUAFO-140" value="Menyimpan Laporan" style="rounded=0;whiteSpace=wrap;html=1;fontSize=9;fillColor=#FFFFFF;" vertex="1" parent="n2nUxR8Hnur2N0bHUAFO-96">
          <mxGeometry x="20" y="240" width="80" height="40" as="geometry" />
        </mxCell>
        <mxCell id="n2nUxR8Hnur2N0bHUAFO-142" value="Daftar Laporan" style="rounded=0;whiteSpace=wrap;html=1;fontSize=9;fillColor=#FFFFFF;" vertex="1" parent="n2nUxR8Hnur2N0bHUAFO-96">
          <mxGeometry x="20" y="310" width="80" height="40" as="geometry" />
        </mxCell>
        <mxCell id="n2nUxR8Hnur2N0bHUAFO-146" value="Manager" style="swimlane;startSize=20;" vertex="1" parent="n2nUxR8Hnur2N0bHUAFO-87">
          <mxGeometry x="260" width="120" height="480" as="geometry" />
        </mxCell>
        <mxCell id="n2nUxR8Hnur2N0bHUAFO-93" value="" style="ellipse;html=1;shape=endState;fillColor=#000000;strokeColor=#ff0000;fontSize=9;" vertex="1" parent="n2nUxR8Hnur2N0bHUAFO-146">
          <mxGeometry x="45" y="380" width="30" height="30" as="geometry" />
        </mxCell>
        <mxCell id="n2nUxR8Hnur2N0bHUAFO-149" style="edgeStyle=orthogonalEdgeStyle;rounded=0;orthogonalLoop=1;jettySize=auto;html=1;entryX=0.5;entryY=0;entryDx=0;entryDy=0;fontSize=9;" edge="1" parent="n2nUxR8Hnur2N0bHUAFO-146" source="n2nUxR8Hnur2N0bHUAFO-147" target="n2nUxR8Hnur2N0bHUAFO-93">
          <mxGeometry relative="1" as="geometry" />
        </mxCell>
        <mxCell id="n2nUxR8Hnur2N0bHUAFO-147" value="Melihat Laporan" style="rounded=0;whiteSpace=wrap;html=1;fontSize=9;fillColor=#FFFFFF;" vertex="1" parent="n2nUxR8Hnur2N0bHUAFO-146">
          <mxGeometry x="20" y="310" width="80" height="40" as="geometry" />
        </mxCell>
        <mxCell id="n2nUxR8Hnur2N0bHUAFO-103" style="edgeStyle=orthogonalEdgeStyle;rounded=0;orthogonalLoop=1;jettySize=auto;html=1;entryX=0;entryY=0.5;entryDx=0;entryDy=0;" edge="1" parent="n2nUxR8Hnur2N0bHUAFO-87" source="n2nUxR8Hnur2N0bHUAFO-91" target="n2nUxR8Hnur2N0bHUAFO-137">
          <mxGeometry relative="1" as="geometry">
            <mxPoint x="150" y="130" as="targetPoint" />
          </mxGeometry>
        </mxCell>
        <mxCell id="n2nUxR8Hnur2N0bHUAFO-105" value="Ya" style="edgeStyle=orthogonalEdgeStyle;rounded=0;orthogonalLoop=1;jettySize=auto;html=1;entryX=0.5;entryY=0;entryDx=0;entryDy=0;fontSize=9;" edge="1" parent="n2nUxR8Hnur2N0bHUAFO-87" target="n2nUxR8Hnur2N0bHUAFO-92">
          <mxGeometry relative="1" as="geometry">
            <Array as="points">
              <mxPoint x="200" y="170" />
              <mxPoint x="80" y="170" />
            </Array>
            <mxPoint x="200" y="150" as="sourcePoint" />
          </mxGeometry>
        </mxCell>
        <mxCell id="n2nUxR8Hnur2N0bHUAFO-138" value="Tidak" style="edgeStyle=orthogonalEdgeStyle;rounded=0;orthogonalLoop=1;jettySize=auto;html=1;entryX=0.75;entryY=0;entryDx=0;entryDy=0;fontSize=9;" edge="1" parent="n2nUxR8Hnur2N0bHUAFO-87" source="n2nUxR8Hnur2N0bHUAFO-137" target="n2nUxR8Hnur2N0bHUAFO-91">
          <mxGeometry relative="1" as="geometry">
            <Array as="points">
              <mxPoint x="200" y="90" />
              <mxPoint x="105" y="90" />
            </Array>
          </mxGeometry>
        </mxCell>
        <mxCell id="n2nUxR8Hnur2N0bHUAFO-141" style="edgeStyle=orthogonalEdgeStyle;rounded=0;orthogonalLoop=1;jettySize=auto;html=1;entryX=0;entryY=0.5;entryDx=0;entryDy=0;fontSize=9;" edge="1" parent="n2nUxR8Hnur2N0bHUAFO-87" source="n2nUxR8Hnur2N0bHUAFO-139" target="n2nUxR8Hnur2N0bHUAFO-140">
          <mxGeometry relative="1" as="geometry" />
        </mxCell>
        <mxCell id="n2nUxR8Hnur2N0bHUAFO-148" style="edgeStyle=orthogonalEdgeStyle;rounded=0;orthogonalLoop=1;jettySize=auto;html=1;entryX=0;entryY=0.5;entryDx=0;entryDy=0;fontSize=9;" edge="1" parent="n2nUxR8Hnur2N0bHUAFO-87" source="n2nUxR8Hnur2N0bHUAFO-142" target="n2nUxR8Hnur2N0bHUAFO-147">
          <mxGeometry relative="1" as="geometry" />
        </mxCell>
        <mxCell id="n2nUxR8Hnur2N0bHUAFO-109" value="" style="shape=table;startSize=0;container=1;collapsible=0;childLayout=tableLayout;fontStyle=1" vertex="1" parent="1">
          <mxGeometry x="450" y="10" width="380" height="30" as="geometry" />
        </mxCell>
        <mxCell id="n2nUxR8Hnur2N0bHUAFO-110" value="" style="shape=partialRectangle;collapsible=0;dropTarget=0;pointerEvents=0;fillColor=none;top=0;left=0;bottom=0;right=0;points=[[0,0.5],[1,0.5]];portConstraint=eastwest;" vertex="1" parent="n2nUxR8Hnur2N0bHUAFO-109">
          <mxGeometry width="380" height="30" as="geometry" />
        </mxCell>
        <mxCell id="n2nUxR8Hnur2N0bHUAFO-111" value="&lt;b&gt;Membuat Laporan Laba Rugi&lt;/b&gt;" style="shape=partialRectangle;html=1;whiteSpace=wrap;connectable=0;overflow=hidden;fillColor=none;top=0;left=0;bottom=0;right=0;pointerEvents=1;" vertex="1" parent="n2nUxR8Hnur2N0bHUAFO-110">
          <mxGeometry width="380" height="30" as="geometry">
            <mxRectangle width="380" height="30" as="alternateBounds" />
          </mxGeometry>
        </mxCell>
        <mxCell id="n2nUxR8Hnur2N0bHUAFO-150" value="" style="swimlane;childLayout=stackLayout;resizeParent=1;resizeParentMax=0;startSize=20;horizontal=0;horizontalStack=1;" vertex="1" parent="1">
          <mxGeometry x="40" y="610" width="260" height="480" as="geometry" />
        </mxCell>
        <mxCell id="n2nUxR8Hnur2N0bHUAFO-151" value="Admin" style="swimlane;startSize=20;" vertex="1" parent="n2nUxR8Hnur2N0bHUAFO-150">
          <mxGeometry x="20" width="120" height="480" as="geometry" />
        </mxCell>
        <mxCell id="n2nUxR8Hnur2N0bHUAFO-152" style="edgeStyle=orthogonalEdgeStyle;rounded=0;orthogonalLoop=1;jettySize=auto;html=1;entryX=0.5;entryY=0;entryDx=0;entryDy=0;" edge="1" parent="n2nUxR8Hnur2N0bHUAFO-151" source="n2nUxR8Hnur2N0bHUAFO-153" target="n2nUxR8Hnur2N0bHUAFO-154">
          <mxGeometry relative="1" as="geometry" />
        </mxCell>
        <mxCell id="n2nUxR8Hnur2N0bHUAFO-153" value="" style="ellipse;whiteSpace=wrap;html=1;aspect=fixed;fillColor=#000000;" vertex="1" parent="n2nUxR8Hnur2N0bHUAFO-151">
          <mxGeometry x="45" y="40" width="30" height="30" as="geometry" />
        </mxCell>
        <mxCell id="n2nUxR8Hnur2N0bHUAFO-154" value="Mengisi Form Login" style="rounded=0;whiteSpace=wrap;html=1;fillColor=#FFFFFF;" vertex="1" parent="n2nUxR8Hnur2N0bHUAFO-151">
          <mxGeometry x="10" y="110" width="100" height="40" as="geometry" />
        </mxCell>
        <mxCell id="n2nUxR8Hnur2N0bHUAFO-175" style="edgeStyle=orthogonalEdgeStyle;rounded=0;orthogonalLoop=1;jettySize=auto;html=1;entryX=0.5;entryY=0;entryDx=0;entryDy=0;fontSize=9;" edge="1" parent="n2nUxR8Hnur2N0bHUAFO-151" source="n2nUxR8Hnur2N0bHUAFO-155" target="n2nUxR8Hnur2N0bHUAFO-156">
          <mxGeometry relative="1" as="geometry" />
        </mxCell>
        <mxCell id="n2nUxR8Hnur2N0bHUAFO-155" value="Dashboard" style="rounded=0;whiteSpace=wrap;html=1;fontSize=9;fillColor=#FFFFFF;" vertex="1" parent="n2nUxR8Hnur2N0bHUAFO-151">
          <mxGeometry x="20" y="180" width="80" height="40" as="geometry" />
        </mxCell>
        <mxCell id="n2nUxR8Hnur2N0bHUAFO-156" value="Membuat, Menghapus, Mengedit Pesanan" style="rounded=0;whiteSpace=wrap;html=1;fontSize=9;fillColor=#FFFFFF;" vertex="1" parent="n2nUxR8Hnur2N0bHUAFO-151">
          <mxGeometry x="20" y="240" width="80" height="40" as="geometry" />
        </mxCell>
        <mxCell id="n2nUxR8Hnur2N0bHUAFO-157" value="Sistem" style="swimlane;startSize=20;" vertex="1" parent="n2nUxR8Hnur2N0bHUAFO-150">
          <mxGeometry x="140" width="120" height="480" as="geometry" />
        </mxCell>
        <mxCell id="n2nUxR8Hnur2N0bHUAFO-158" value="Login Valid?" style="shape=rhombus;html=1;dashed=0;whitespace=wrap;perimeter=rhombusPerimeter;fontSize=9;fillColor=#FFFFFF;" vertex="1" parent="n2nUxR8Hnur2N0bHUAFO-157">
          <mxGeometry x="30" y="105" width="60" height="50" as="geometry" />
        </mxCell>
        <mxCell id="n2nUxR8Hnur2N0bHUAFO-177" style="edgeStyle=orthogonalEdgeStyle;rounded=0;orthogonalLoop=1;jettySize=auto;html=1;entryX=0.5;entryY=0;entryDx=0;entryDy=0;fontSize=9;" edge="1" parent="n2nUxR8Hnur2N0bHUAFO-157" source="n2nUxR8Hnur2N0bHUAFO-160" target="n2nUxR8Hnur2N0bHUAFO-176">
          <mxGeometry relative="1" as="geometry" />
        </mxCell>
        <mxCell id="n2nUxR8Hnur2N0bHUAFO-160" value="Menyimpan Pesanan" style="rounded=0;whiteSpace=wrap;html=1;fontSize=9;fillColor=#FFFFFF;" vertex="1" parent="n2nUxR8Hnur2N0bHUAFO-157">
          <mxGeometry x="20" y="240" width="80" height="40" as="geometry" />
        </mxCell>
        <mxCell id="n2nUxR8Hnur2N0bHUAFO-163" value="" style="ellipse;html=1;shape=endState;fillColor=#000000;strokeColor=#ff0000;fontSize=9;" vertex="1" parent="n2nUxR8Hnur2N0bHUAFO-157">
          <mxGeometry x="45" y="370" width="30" height="30" as="geometry" />
        </mxCell>
        <mxCell id="n2nUxR8Hnur2N0bHUAFO-178" style="edgeStyle=orthogonalEdgeStyle;rounded=0;orthogonalLoop=1;jettySize=auto;html=1;entryX=0.5;entryY=0;entryDx=0;entryDy=0;fontSize=9;" edge="1" parent="n2nUxR8Hnur2N0bHUAFO-157" source="n2nUxR8Hnur2N0bHUAFO-176" target="n2nUxR8Hnur2N0bHUAFO-163">
          <mxGeometry relative="1" as="geometry" />
        </mxCell>
        <mxCell id="n2nUxR8Hnur2N0bHUAFO-176" value="Daftar Pesanan" style="rounded=0;whiteSpace=wrap;html=1;fontSize=9;fillColor=#FFFFFF;" vertex="1" parent="n2nUxR8Hnur2N0bHUAFO-157">
          <mxGeometry x="20" y="300" width="80" height="40" as="geometry" />
        </mxCell>
        <mxCell id="n2nUxR8Hnur2N0bHUAFO-166" style="edgeStyle=orthogonalEdgeStyle;rounded=0;orthogonalLoop=1;jettySize=auto;html=1;entryX=0;entryY=0.5;entryDx=0;entryDy=0;" edge="1" parent="n2nUxR8Hnur2N0bHUAFO-150" source="n2nUxR8Hnur2N0bHUAFO-154" target="n2nUxR8Hnur2N0bHUAFO-158">
          <mxGeometry relative="1" as="geometry">
            <mxPoint x="150" y="130" as="targetPoint" />
          </mxGeometry>
        </mxCell>
        <mxCell id="n2nUxR8Hnur2N0bHUAFO-167" value="Ya" style="edgeStyle=orthogonalEdgeStyle;rounded=0;orthogonalLoop=1;jettySize=auto;html=1;entryX=0.5;entryY=0;entryDx=0;entryDy=0;fontSize=9;" edge="1" parent="n2nUxR8Hnur2N0bHUAFO-150" target="n2nUxR8Hnur2N0bHUAFO-155">
          <mxGeometry relative="1" as="geometry">
            <Array as="points">
              <mxPoint x="200" y="170" />
              <mxPoint x="80" y="170" />
            </Array>
            <mxPoint x="200" y="150" as="sourcePoint" />
          </mxGeometry>
        </mxCell>
        <mxCell id="n2nUxR8Hnur2N0bHUAFO-168" value="Tidak" style="edgeStyle=orthogonalEdgeStyle;rounded=0;orthogonalLoop=1;jettySize=auto;html=1;entryX=0.75;entryY=0;entryDx=0;entryDy=0;fontSize=9;" edge="1" parent="n2nUxR8Hnur2N0bHUAFO-150" source="n2nUxR8Hnur2N0bHUAFO-158" target="n2nUxR8Hnur2N0bHUAFO-154">
          <mxGeometry relative="1" as="geometry">
            <Array as="points">
              <mxPoint x="200" y="90" />
              <mxPoint x="105" y="90" />
            </Array>
          </mxGeometry>
        </mxCell>
        <mxCell id="n2nUxR8Hnur2N0bHUAFO-169" style="edgeStyle=orthogonalEdgeStyle;rounded=0;orthogonalLoop=1;jettySize=auto;html=1;entryX=0;entryY=0.5;entryDx=0;entryDy=0;fontSize=9;" edge="1" parent="n2nUxR8Hnur2N0bHUAFO-150" source="n2nUxR8Hnur2N0bHUAFO-156" target="n2nUxR8Hnur2N0bHUAFO-160">
          <mxGeometry relative="1" as="geometry" />
        </mxCell>
        <mxCell id="n2nUxR8Hnur2N0bHUAFO-171" value="" style="shape=table;startSize=0;container=1;collapsible=0;childLayout=tableLayout;fontStyle=1" vertex="1" parent="1">
          <mxGeometry x="40" y="580" width="260" height="30" as="geometry" />
        </mxCell>
        <mxCell id="n2nUxR8Hnur2N0bHUAFO-172" value="" style="shape=partialRectangle;collapsible=0;dropTarget=0;pointerEvents=0;fillColor=none;top=0;left=0;bottom=0;right=0;points=[[0,0.5],[1,0.5]];portConstraint=eastwest;" vertex="1" parent="n2nUxR8Hnur2N0bHUAFO-171">
          <mxGeometry width="260" height="30" as="geometry" />
        </mxCell>
        <mxCell id="n2nUxR8Hnur2N0bHUAFO-173" value="&lt;b&gt;Mengelola Daftar Pesanan&lt;/b&gt;" style="shape=partialRectangle;html=1;whiteSpace=wrap;connectable=0;overflow=hidden;fillColor=none;top=0;left=0;bottom=0;right=0;pointerEvents=1;" vertex="1" parent="n2nUxR8Hnur2N0bHUAFO-172">
          <mxGeometry width="260" height="30" as="geometry">
            <mxRectangle width="260" height="30" as="alternateBounds" />
          </mxGeometry>
        </mxCell>
        <mxCell id="n2nUxR8Hnur2N0bHUAFO-179" value="&lt;div style=&quot;text-align: left ; font-size: 15px&quot;&gt;&lt;span&gt;&lt;font style=&quot;font-size: 15px&quot;&gt;Nama : Muhammad Farras Rayhand&lt;/font&gt;&lt;/span&gt;&lt;/div&gt;&lt;div style=&quot;text-align: left ; font-size: 15px&quot;&gt;&lt;span&gt;&lt;font style=&quot;font-size: 15px&quot;&gt;NIM : 2041007&lt;/font&gt;&lt;/span&gt;&lt;/div&gt;" style="text;html=1;align=center;verticalAlign=middle;resizable=0;points=[];autosize=1;strokeColor=none;fillColor=none;fontSize=9;" vertex="1" parent="1">
          <mxGeometry x="380" y="735" width="260" height="30" as="geometry" />
        </mxCell>
      </root>
    </mxGraphModel>
  </diagram>
</mxfile>
